<svg width="31" height="31" viewBox="0 0 31 31" fill="none" xmlns="http://www.w3.org/2000/svg">
<path d="M26.4068 4.54586C23.4852 1.62414 19.6005 0.0151367 15.4688 0.0151367C11.337 0.0151367 7.45227 1.62414 4.53073 4.54586C1.609 7.4674 0 11.3522 0 15.4839C0 19.6156 1.609 23.5004 4.53073 26.4219C7.45227 29.3436 11.337 30.9526 15.4688 30.9526C19.6005 30.9526 23.4852 29.3436 26.4068 26.4219C29.3285 23.5004 30.9375 19.6156 30.9375 15.4839C30.9375 11.3522 29.3285 7.4674 26.4068 4.54586ZM15.4688 28.5356C8.27216 28.5356 2.41699 22.6805 2.41699 15.4839C2.41699 8.28729 8.27216 2.43213 15.4688 2.43213C22.6653 2.43213 28.5205 8.28729 28.5205 15.4839C28.5205 22.6805 22.6653 28.5356 15.4688 28.5356ZM17.7853 16.1741L22.1823 20.5486L20.4776 22.2624L16.0279 17.835C15.8483 17.8778 15.6614 17.9009 15.4688 17.9009C14.1339 17.9009 13.0518 16.8187 13.0518 15.4839C13.0518 14.6145 13.511 13.8526 14.1998 13.4268V4.90955H15.4083H16.6168V13.3566C17.3723 13.7654 17.8857 14.5645 17.8857 15.4839C17.8857 15.7237 17.8502 15.9552 17.7853 16.1741Z" fill="#E2E6E9"/>
</svg>
